<?xml version="1.0" standalone="no"?>
<svg xmlns:xlink="http://www.w3.org/1999/xlink" id="wave" style="transform:rotate(0deg); transition: 0.3s" viewBox="0 0 1440 490" version="1.1" xmlns="http://www.w3.org/2000/svg"><defs><linearGradient id="sw-gradient-0" x1="0" x2="0" y1="1" y2="0"><stop stop-color="rgba(0, 126.684, 177.909, 1)" offset="0%"/><stop stop-color="rgba(77.832, 255, 251.999, 1)" offset="100%"/></linearGradient></defs><path style="transform:translate(0, 0px); opacity:1" fill="url(#sw-gradient-0)" d="M0,147L40,138.8C80,131,160,114,240,130.7C320,147,400,196,480,212.3C560,229,640,212,720,236.8C800,261,880,327,960,310.3C1040,294,1120,196,1200,155.2C1280,114,1360,131,1440,187.8C1520,245,1600,343,1680,392C1760,441,1840,441,1920,383.8C2000,327,2080,212,2160,155.2C2240,98,2320,98,2400,106.2C2480,114,2560,131,2640,147C2720,163,2800,180,2880,220.5C2960,261,3040,327,3120,359.3C3200,392,3280,392,3360,375.7C3440,359,3520,327,3600,334.8C3680,343,3760,392,3840,375.7C3920,359,4000,278,4080,253.2C4160,229,4240,261,4320,253.2C4400,245,4480,196,4560,147C4640,98,4720,49,4800,81.7C4880,114,4960,229,5040,253.2C5120,278,5200,212,5280,228.7C5360,245,5440,343,5520,326.7C5600,310,5680,180,5720,114.3L5760,49L5760,490L5720,490C5680,490,5600,490,5520,490C5440,490,5360,490,5280,490C5200,490,5120,490,5040,490C4960,490,4880,490,4800,490C4720,490,4640,490,4560,490C4480,490,4400,490,4320,490C4240,490,4160,490,4080,490C4000,490,3920,490,3840,490C3760,490,3680,490,3600,490C3520,490,3440,490,3360,490C3280,490,3200,490,3120,490C3040,490,2960,490,2880,490C2800,490,2720,490,2640,490C2560,490,2480,490,2400,490C2320,490,2240,490,2160,490C2080,490,2000,490,1920,490C1840,490,1760,490,1680,490C1600,490,1520,490,1440,490C1360,490,1280,490,1200,490C1120,490,1040,490,960,490C880,490,800,490,720,490C640,490,560,490,480,490C400,490,320,490,240,490C160,490,80,490,40,490L0,490Z"/></svg>