<?xml version="1.0" standalone="no"?>
<svg xmlns:xlink="http://www.w3.org/1999/xlink" id="wave" style="transform:rotate(0deg); transition: 0.3s" viewBox="0 0 1440 490" version="1.1" xmlns="http://www.w3.org/2000/svg"><defs><linearGradient id="sw-gradient-0" x1="0" x2="0" y1="1" y2="0"><stop stop-color="rgba(0, 126.684, 177.909, 1)" offset="0%"/><stop stop-color="rgba(77.832, 255, 251.999, 1)" offset="100%"/></linearGradient></defs><path style="transform:translate(0, 0px); opacity:1" fill="url(#sw-gradient-0)" d="M0,147L40,171.5C80,196,160,245,240,285.8C320,327,400,359,480,326.7C560,294,640,196,720,187.8C800,180,880,261,960,285.8C1040,310,1120,278,1200,277.7C1280,278,1360,310,1440,343C1520,376,1600,408,1680,408.3C1760,408,1840,376,1920,359.3C2000,343,2080,343,2160,302.2C2240,261,2320,180,2400,147C2480,114,2560,131,2640,147C2720,163,2800,180,2880,171.5C2960,163,3040,131,3120,122.5C3200,114,3280,131,3360,138.8C3440,147,3520,147,3600,147C3680,147,3760,147,3840,155.2C3920,163,4000,180,4080,212.3C4160,245,4240,294,4320,269.5C4400,245,4480,147,4560,138.8C4640,131,4720,212,4800,269.5C4880,327,4960,359,5040,318.5C5120,278,5200,163,5280,147C5360,131,5440,212,5520,236.8C5600,261,5680,229,5720,212.3L5760,196L5760,490L5720,490C5680,490,5600,490,5520,490C5440,490,5360,490,5280,490C5200,490,5120,490,5040,490C4960,490,4880,490,4800,490C4720,490,4640,490,4560,490C4480,490,4400,490,4320,490C4240,490,4160,490,4080,490C4000,490,3920,490,3840,490C3760,490,3680,490,3600,490C3520,490,3440,490,3360,490C3280,490,3200,490,3120,490C3040,490,2960,490,2880,490C2800,490,2720,490,2640,490C2560,490,2480,490,2400,490C2320,490,2240,490,2160,490C2080,490,2000,490,1920,490C1840,490,1760,490,1680,490C1600,490,1520,490,1440,490C1360,490,1280,490,1200,490C1120,490,1040,490,960,490C880,490,800,490,720,490C640,490,560,490,480,490C400,490,320,490,240,490C160,490,80,490,40,490L0,490Z"/></svg>