<?xml version="1.0" standalone="no"?>
<svg xmlns:xlink="http://www.w3.org/1999/xlink" id="wave" style="transform:rotate(0deg); transition: 0.3s" viewBox="0 0 1440 490" version="1.1" xmlns="http://www.w3.org/2000/svg"><defs><linearGradient id="sw-gradient-0" x1="0" x2="0" y1="1" y2="0"><stop stop-color="rgba(0, 126.684, 177.909, 1)" offset="0%"/><stop stop-color="rgba(77.832, 255, 251.999, 1)" offset="100%"/></linearGradient></defs><path style="transform:translate(0, 0px); opacity:1" fill="url(#sw-gradient-0)" d="M0,392L40,343C80,294,160,196,240,155.2C320,114,400,131,480,163.3C560,196,640,245,720,285.8C800,327,880,359,960,343C1040,327,1120,261,1200,196C1280,131,1360,65,1440,106.2C1520,147,1600,294,1680,326.7C1760,359,1840,278,1920,245C2000,212,2080,229,2160,269.5C2240,310,2320,376,2400,383.8C2480,392,2560,343,2640,343C2720,343,2800,392,2880,383.8C2960,376,3040,310,3120,269.5C3200,229,3280,212,3360,212.3C3440,212,3520,229,3600,212.3C3680,196,3760,147,3840,130.7C3920,114,4000,131,4080,147C4160,163,4240,180,4320,179.7C4400,180,4480,163,4560,130.7C4640,98,4720,49,4800,89.8C4880,131,4960,261,5040,334.8C5120,408,5200,425,5280,424.7C5360,425,5440,408,5520,408.3C5600,408,5680,425,5720,432.8L5760,441L5760,490L5720,490C5680,490,5600,490,5520,490C5440,490,5360,490,5280,490C5200,490,5120,490,5040,490C4960,490,4880,490,4800,490C4720,490,4640,490,4560,490C4480,490,4400,490,4320,490C4240,490,4160,490,4080,490C4000,490,3920,490,3840,490C3760,490,3680,490,3600,490C3520,490,3440,490,3360,490C3280,490,3200,490,3120,490C3040,490,2960,490,2880,490C2800,490,2720,490,2640,490C2560,490,2480,490,2400,490C2320,490,2240,490,2160,490C2080,490,2000,490,1920,490C1840,490,1760,490,1680,490C1600,490,1520,490,1440,490C1360,490,1280,490,1200,490C1120,490,1040,490,960,490C880,490,800,490,720,490C640,490,560,490,480,490C400,490,320,490,240,490C160,490,80,490,40,490L0,490Z"/></svg>