<?xml version="1.0" standalone="no"?>
<svg xmlns:xlink="http://www.w3.org/1999/xlink" id="wave" style="transform:rotate(0deg); transition: 0.3s" viewBox="0 0 1440 490" version="1.1" xmlns="http://www.w3.org/2000/svg"><defs><linearGradient id="sw-gradient-0" x1="0" x2="0" y1="1" y2="0"><stop stop-color="rgba(0, 126.684, 177.909, 1)" offset="0%"/><stop stop-color="rgba(77.832, 255, 251.999, 1)" offset="100%"/></linearGradient></defs><path style="transform:translate(0, 0px); opacity:1" fill="url(#sw-gradient-0)" d="M0,147L34.3,130.7C68.6,114,137,82,206,130.7C274.3,180,343,310,411,310.3C480,310,549,180,617,155.2C685.7,131,754,212,823,228.7C891.4,245,960,196,1029,212.3C1097.1,229,1166,310,1234,334.8C1302.9,359,1371,327,1440,285.8C1508.6,245,1577,196,1646,147C1714.3,98,1783,49,1851,81.7C1920,114,1989,229,2057,261.3C2125.7,294,2194,245,2263,245C2331.4,245,2400,294,2469,310.3C2537.1,327,2606,310,2674,261.3C2742.9,212,2811,131,2880,122.5C2948.6,114,3017,180,3086,179.7C3154.3,180,3223,114,3291,138.8C3360,163,3429,278,3497,310.3C3565.7,343,3634,294,3703,302.2C3771.4,310,3840,376,3909,392C3977.1,408,4046,376,4114,343C4182.9,310,4251,278,4320,228.7C4388.6,180,4457,114,4526,98C4594.3,82,4663,114,4731,179.7C4800,245,4869,343,4903,392L4937.1,441L4937.1,490L4902.9,490C4868.6,490,4800,490,4731,490C4662.9,490,4594,490,4526,490C4457.1,490,4389,490,4320,490C4251.4,490,4183,490,4114,490C4045.7,490,3977,490,3909,490C3840,490,3771,490,3703,490C3634.3,490,3566,490,3497,490C3428.6,490,3360,490,3291,490C3222.9,490,3154,490,3086,490C3017.1,490,2949,490,2880,490C2811.4,490,2743,490,2674,490C2605.7,490,2537,490,2469,490C2400,490,2331,490,2263,490C2194.3,490,2126,490,2057,490C1988.6,490,1920,490,1851,490C1782.9,490,1714,490,1646,490C1577.1,490,1509,490,1440,490C1371.4,490,1303,490,1234,490C1165.7,490,1097,490,1029,490C960,490,891,490,823,490C754.3,490,686,490,617,490C548.6,490,480,490,411,490C342.9,490,274,490,206,490C137.1,490,69,490,34,490L0,490Z"/></svg>