<?xml version="1.0" standalone="no"?>
<svg xmlns:xlink="http://www.w3.org/1999/xlink" id="wave" style="transform:rotate(0deg); transition: 0.3s" viewBox="0 0 1440 490" version="1.1" xmlns="http://www.w3.org/2000/svg"><defs><linearGradient id="sw-gradient-0" x1="0" x2="0" y1="1" y2="0"><stop stop-color="rgba(0, 84.498, 177.909, 1)" offset="0%"/><stop stop-color="rgba(77.832, 185.983, 255, 1)" offset="100%"/></linearGradient></defs><path style="transform:translate(0, 0px); opacity:1" fill="url(#sw-gradient-0)" d="M0,245L40,253.2C80,261,160,278,240,277.7C320,278,400,261,480,236.8C560,212,640,180,720,187.8C800,196,880,245,960,294C1040,343,1120,392,1200,383.8C1280,376,1360,310,1440,310.3C1520,310,1600,376,1680,400.2C1760,425,1840,408,1920,367.5C2000,327,2080,261,2160,269.5C2240,278,2320,359,2400,343C2480,327,2560,212,2640,138.8C2720,65,2800,33,2880,81.7C2960,131,3040,261,3120,334.8C3200,408,3280,425,3360,392C3440,359,3520,278,3600,261.3C3680,245,3760,294,3840,261.3C3920,229,4000,114,4080,114.3C4160,114,4240,229,4320,277.7C4400,327,4480,310,4560,318.5C4640,327,4720,359,4800,343C4880,327,4960,261,5040,204.2C5120,147,5200,98,5280,89.8C5360,82,5440,114,5520,155.2C5600,196,5680,245,5720,269.5L5760,294L5760,490L5720,490C5680,490,5600,490,5520,490C5440,490,5360,490,5280,490C5200,490,5120,490,5040,490C4960,490,4880,490,4800,490C4720,490,4640,490,4560,490C4480,490,4400,490,4320,490C4240,490,4160,490,4080,490C4000,490,3920,490,3840,490C3760,490,3680,490,3600,490C3520,490,3440,490,3360,490C3280,490,3200,490,3120,490C3040,490,2960,490,2880,490C2800,490,2720,490,2640,490C2560,490,2480,490,2400,490C2320,490,2240,490,2160,490C2080,490,2000,490,1920,490C1840,490,1760,490,1680,490C1600,490,1520,490,1440,490C1360,490,1280,490,1200,490C1120,490,1040,490,960,490C880,490,800,490,720,490C640,490,560,490,480,490C400,490,320,490,240,490C160,490,80,490,40,490L0,490Z"/></svg>