<?xml version="1.0" standalone="no"?>
<svg xmlns:xlink="http://www.w3.org/1999/xlink" id="wave" style="transform:rotate(0deg); transition: 0.3s" viewBox="0 0 1440 490" version="1.1" xmlns="http://www.w3.org/2000/svg"><defs><linearGradient id="sw-gradient-0" x1="0" x2="0" y1="1" y2="0"><stop stop-color="rgba(0, 84.498, 177.909, 1)" offset="0%"/><stop stop-color="rgba(77.832, 185.983, 255, 1)" offset="100%"/></linearGradient></defs><path style="transform:translate(0, 0px); opacity:1" fill="url(#sw-gradient-0)" d="M0,49L40,73.5C80,98,160,147,240,212.3C320,278,400,359,480,375.7C560,392,640,343,720,326.7C800,310,880,327,960,285.8C1040,245,1120,147,1200,122.5C1280,98,1360,147,1440,138.8C1520,131,1600,65,1680,40.8C1760,16,1840,33,1920,98C2000,163,2080,278,2160,277.7C2240,278,2320,163,2400,98C2480,33,2560,16,2640,16.3C2720,16,2800,33,2880,81.7C2960,131,3040,212,3120,228.7C3200,245,3280,196,3360,163.3C3440,131,3520,114,3600,98C3680,82,3760,65,3840,114.3C3920,163,4000,278,4080,310.3C4160,343,4240,294,4320,261.3C4400,229,4480,212,4560,204.2C4640,196,4720,196,4800,212.3C4880,229,4960,261,5040,302.2C5120,343,5200,392,5280,416.5C5360,441,5440,441,5520,432.8C5600,425,5680,408,5720,400.2L5760,392L5760,490L5720,490C5680,490,5600,490,5520,490C5440,490,5360,490,5280,490C5200,490,5120,490,5040,490C4960,490,4880,490,4800,490C4720,490,4640,490,4560,490C4480,490,4400,490,4320,490C4240,490,4160,490,4080,490C4000,490,3920,490,3840,490C3760,490,3680,490,3600,490C3520,490,3440,490,3360,490C3280,490,3200,490,3120,490C3040,490,2960,490,2880,490C2800,490,2720,490,2640,490C2560,490,2480,490,2400,490C2320,490,2240,490,2160,490C2080,490,2000,490,1920,490C1840,490,1760,490,1680,490C1600,490,1520,490,1440,490C1360,490,1280,490,1200,490C1120,490,1040,490,960,490C880,490,800,490,720,490C640,490,560,490,480,490C400,490,320,490,240,490C160,490,80,490,40,490L0,490Z"/></svg>