<?xml version="1.0" standalone="no"?>
<svg xmlns:xlink="http://www.w3.org/1999/xlink" id="wave" style="transform:rotate(0deg); transition: 0.3s" viewBox="0 0 1440 490" version="1.1" xmlns="http://www.w3.org/2000/svg"><defs><linearGradient id="sw-gradient-0" x1="0" x2="0" y1="1" y2="0"><stop stop-color="rgba(0, 84.498, 177.909, 1)" offset="0%"/><stop stop-color="rgba(77.832, 185.983, 255, 1)" offset="100%"/></linearGradient></defs><path style="transform:translate(0, 0px); opacity:1" fill="url(#sw-gradient-0)" d="M0,343L40,326.7C80,310,160,278,240,269.5C320,261,400,278,480,253.2C560,229,640,163,720,130.7C800,98,880,98,960,147C1040,196,1120,294,1200,334.8C1280,376,1360,359,1440,294C1520,229,1600,114,1680,122.5C1760,131,1840,261,1920,269.5C2000,278,2080,163,2160,130.7C2240,98,2320,147,2400,187.8C2480,229,2560,261,2640,285.8C2720,310,2800,327,2880,318.5C2960,310,3040,278,3120,277.7C3200,278,3280,310,3360,277.7C3440,245,3520,147,3600,163.3C3680,180,3760,310,3840,351.2C3920,392,4000,343,4080,343C4160,343,4240,392,4320,416.5C4400,441,4480,441,4560,441C4640,441,4720,441,4800,383.8C4880,327,4960,212,5040,163.3C5120,114,5200,131,5280,155.2C5360,180,5440,212,5520,212.3C5600,212,5680,180,5720,163.3L5760,147L5760,490L5720,490C5680,490,5600,490,5520,490C5440,490,5360,490,5280,490C5200,490,5120,490,5040,490C4960,490,4880,490,4800,490C4720,490,4640,490,4560,490C4480,490,4400,490,4320,490C4240,490,4160,490,4080,490C4000,490,3920,490,3840,490C3760,490,3680,490,3600,490C3520,490,3440,490,3360,490C3280,490,3200,490,3120,490C3040,490,2960,490,2880,490C2800,490,2720,490,2640,490C2560,490,2480,490,2400,490C2320,490,2240,490,2160,490C2080,490,2000,490,1920,490C1840,490,1760,490,1680,490C1600,490,1520,490,1440,490C1360,490,1280,490,1200,490C1120,490,1040,490,960,490C880,490,800,490,720,490C640,490,560,490,480,490C400,490,320,490,240,490C160,490,80,490,40,490L0,490Z"/></svg>