<?xml version="1.0" standalone="no"?>
<svg xmlns:xlink="http://www.w3.org/1999/xlink" id="wave" style="transform:rotate(0deg); transition: 0.3s" viewBox="0 0 1440 490" version="1.1" xmlns="http://www.w3.org/2000/svg"><defs><linearGradient id="sw-gradient-0" x1="0" x2="0" y1="1" y2="0"><stop stop-color="rgba(0, 84.498, 177.909, 1)" offset="0%"/><stop stop-color="rgba(77.832, 185.983, 255, 1)" offset="100%"/></linearGradient></defs><path style="transform:translate(0, 0px); opacity:1" fill="url(#sw-gradient-0)" d="M0,392L80,383.8C160,376,320,359,480,351.2C640,343,800,343,960,310.3C1120,278,1280,212,1440,155.2C1600,98,1760,49,1920,49C2080,49,2240,98,2400,98C2560,98,2720,49,2880,32.7C3040,16,3200,33,3360,65.3C3520,98,3680,147,3840,138.8C4000,131,4160,65,4320,81.7C4480,98,4640,196,4800,228.7C4960,261,5120,229,5280,236.8C5440,245,5600,294,5760,277.7C5920,261,6080,180,6240,196C6400,212,6560,327,6720,334.8C6880,343,7040,245,7200,245C7360,245,7520,343,7680,359.3C7840,376,8000,310,8160,302.2C8320,294,8480,343,8640,334.8C8800,327,8960,261,9120,220.5C9280,180,9440,163,9600,196C9760,229,9920,310,10080,285.8C10240,261,10400,131,10560,138.8C10720,147,10880,294,11040,359.3C11200,425,11360,408,11440,400.2L11520,392L11520,490L11440,490C11360,490,11200,490,11040,490C10880,490,10720,490,10560,490C10400,490,10240,490,10080,490C9920,490,9760,490,9600,490C9440,490,9280,490,9120,490C8960,490,8800,490,8640,490C8480,490,8320,490,8160,490C8000,490,7840,490,7680,490C7520,490,7360,490,7200,490C7040,490,6880,490,6720,490C6560,490,6400,490,6240,490C6080,490,5920,490,5760,490C5600,490,5440,490,5280,490C5120,490,4960,490,4800,490C4640,490,4480,490,4320,490C4160,490,4000,490,3840,490C3680,490,3520,490,3360,490C3200,490,3040,490,2880,490C2720,490,2560,490,2400,490C2240,490,2080,490,1920,490C1760,490,1600,490,1440,490C1280,490,1120,490,960,490C800,490,640,490,480,490C320,490,160,490,80,490L0,490Z"/></svg>