<?xml version="1.0" standalone="no"?>
<svg xmlns:xlink="http://www.w3.org/1999/xlink" id="wave" style="transform:rotate(0deg); transition: 0.3s" viewBox="0 0 1440 490" version="1.1" xmlns="http://www.w3.org/2000/svg"><defs><linearGradient id="sw-gradient-0" x1="0" x2="0" y1="1" y2="0"><stop stop-color="rgba(0, 18.205, 177.909, 1)" offset="0%"/><stop stop-color="rgba(77.832, 131.97, 255, 1)" offset="100%"/></linearGradient></defs><path style="transform:translate(0, 0px); opacity:1" fill="url(#sw-gradient-0)" d="M0,196L21.8,212.3C43.6,229,87,261,131,253.2C174.5,245,218,196,262,147C305.5,98,349,49,393,89.8C436.4,131,480,261,524,294C567.3,327,611,261,655,245C698.2,229,742,261,785,253.2C829.1,245,873,196,916,196C960,196,1004,245,1047,220.5C1090.9,196,1135,98,1178,65.3C1221.8,33,1265,65,1309,114.3C1352.7,163,1396,229,1440,228.7C1483.6,229,1527,163,1571,147C1614.5,131,1658,163,1702,196C1745.5,229,1789,261,1833,228.7C1876.4,196,1920,98,1964,122.5C2007.3,147,2051,294,2095,343C2138.2,392,2182,343,2225,285.8C2269.1,229,2313,163,2356,155.2C2400,147,2444,196,2487,236.8C2530.9,278,2575,310,2618,326.7C2661.8,343,2705,343,2749,310.3C2792.7,278,2836,212,2880,228.7C2923.6,245,2967,343,3011,383.8C3054.5,425,3098,408,3120,400.2L3141.8,392L3141.8,490L3120,490C3098.2,490,3055,490,3011,490C2967.3,490,2924,490,2880,490C2836.4,490,2793,490,2749,490C2705.5,490,2662,490,2618,490C2574.5,490,2531,490,2487,490C2443.6,490,2400,490,2356,490C2312.7,490,2269,490,2225,490C2181.8,490,2138,490,2095,490C2050.9,490,2007,490,1964,490C1920,490,1876,490,1833,490C1789.1,490,1745,490,1702,490C1658.2,490,1615,490,1571,490C1527.3,490,1484,490,1440,490C1396.4,490,1353,490,1309,490C1265.5,490,1222,490,1178,490C1134.5,490,1091,490,1047,490C1003.6,490,960,490,916,490C872.7,490,829,490,785,490C741.8,490,698,490,655,490C610.9,490,567,490,524,490C480,490,436,490,393,490C349.1,490,305,490,262,490C218.2,490,175,490,131,490C87.3,490,44,490,22,490L0,490Z"/></svg>