<?xml version="1.0" standalone="no"?>
<svg xmlns:xlink="http://www.w3.org/1999/xlink" id="wave" style="transform:rotate(0deg); transition: 0.3s" viewBox="0 0 1440 490" version="1.1" xmlns="http://www.w3.org/2000/svg"><defs><linearGradient id="sw-gradient-0" x1="0" x2="0" y1="1" y2="0"><stop stop-color="rgba(0, 18.205, 177.909, 1)" offset="0%"/><stop stop-color="rgba(77.832, 131.97, 255, 1)" offset="100%"/></linearGradient></defs><path style="transform:translate(0, 0px); opacity:1" fill="url(#sw-gradient-0)" d="M0,343L60,285.8C120,229,240,114,360,89.8C480,65,600,131,720,196C840,261,960,327,1080,351.2C1200,376,1320,359,1440,310.3C1560,261,1680,180,1800,155.2C1920,131,2040,163,2160,179.7C2280,196,2400,196,2520,228.7C2640,261,2760,327,2880,351.2C3000,376,3120,359,3240,334.8C3360,310,3480,278,3600,294C3720,310,3840,376,3960,408.3C4080,441,4200,441,4320,441C4440,441,4560,441,4680,375.7C4800,310,4920,180,5040,147C5160,114,5280,180,5400,179.7C5520,180,5640,114,5760,81.7C5880,49,6000,49,6120,49C6240,49,6360,49,6480,114.3C6600,180,6720,310,6840,343C6960,376,7080,310,7200,245C7320,180,7440,114,7560,73.5C7680,33,7800,16,7920,24.5C8040,33,8160,65,8280,106.2C8400,147,8520,196,8580,220.5L8640,245L8640,490L8580,490C8520,490,8400,490,8280,490C8160,490,8040,490,7920,490C7800,490,7680,490,7560,490C7440,490,7320,490,7200,490C7080,490,6960,490,6840,490C6720,490,6600,490,6480,490C6360,490,6240,490,6120,490C6000,490,5880,490,5760,490C5640,490,5520,490,5400,490C5280,490,5160,490,5040,490C4920,490,4800,490,4680,490C4560,490,4440,490,4320,490C4200,490,4080,490,3960,490C3840,490,3720,490,3600,490C3480,490,3360,490,3240,490C3120,490,3000,490,2880,490C2760,490,2640,490,2520,490C2400,490,2280,490,2160,490C2040,490,1920,490,1800,490C1680,490,1560,490,1440,490C1320,490,1200,490,1080,490C960,490,840,490,720,490C600,490,480,490,360,490C240,490,120,490,60,490L0,490Z"/></svg>