<?xml version="1.0" standalone="no"?>
<svg xmlns:xlink="http://www.w3.org/1999/xlink" id="wave" style="transform:rotate(0deg); transition: 0.3s" viewBox="0 0 1440 490" version="1.1" xmlns="http://www.w3.org/2000/svg"><defs><linearGradient id="sw-gradient-0" x1="0" x2="0" y1="1" y2="0"><stop stop-color="rgba(0, 18.205, 177.909, 1)" offset="0%"/><stop stop-color="rgba(77.832, 131.97, 255, 1)" offset="100%"/></linearGradient></defs><path style="transform:translate(0, 0px); opacity:1" fill="url(#sw-gradient-0)" d="M0,147L40,155.2C80,163,160,180,240,204.2C320,229,400,261,480,245C560,229,640,163,720,138.8C800,114,880,131,960,114.3C1040,98,1120,49,1200,73.5C1280,98,1360,196,1440,269.5C1520,343,1600,392,1680,359.3C1760,327,1840,212,1920,187.8C2000,163,2080,229,2160,212.3C2240,196,2320,98,2400,114.3C2480,131,2560,261,2640,334.8C2720,408,2800,425,2880,400.2C2960,376,3040,310,3120,277.7C3200,245,3280,245,3360,204.2C3440,163,3520,82,3600,114.3C3680,147,3760,294,3840,359.3C3920,425,4000,408,4080,408.3C4160,408,4240,425,4320,359.3C4400,294,4480,147,4560,138.8C4640,131,4720,261,4800,261.3C4880,261,4960,131,5040,73.5C5120,16,5200,33,5280,73.5C5360,114,5440,180,5520,245C5600,310,5680,376,5720,408.3L5760,441L5760,490L5720,490C5680,490,5600,490,5520,490C5440,490,5360,490,5280,490C5200,490,5120,490,5040,490C4960,490,4880,490,4800,490C4720,490,4640,490,4560,490C4480,490,4400,490,4320,490C4240,490,4160,490,4080,490C4000,490,3920,490,3840,490C3760,490,3680,490,3600,490C3520,490,3440,490,3360,490C3280,490,3200,490,3120,490C3040,490,2960,490,2880,490C2800,490,2720,490,2640,490C2560,490,2480,490,2400,490C2320,490,2240,490,2160,490C2080,490,2000,490,1920,490C1840,490,1760,490,1680,490C1600,490,1520,490,1440,490C1360,490,1280,490,1200,490C1120,490,1040,490,960,490C880,490,800,490,720,490C640,490,560,490,480,490C400,490,320,490,240,490C160,490,80,490,40,490L0,490Z"/></svg>